<svg width="25" height="19" viewBox="0 0 25 19" fill="none" xmlns="http://www.w3.org/2000/svg">
<path d="M24.654 10.2061L16.3203 18.4092C15.5762 19.1417 14.2864 18.629 14.2864 17.5792V12.8917H7.54006C6.8803 12.8917 6.34952 12.3692 6.34952 11.7198V7.03229C6.34952 6.38287 6.8803 5.86041 7.54006 5.86041H14.2864V1.17291C14.2864 0.127992 15.5712 -0.389587 16.3203 0.342835L24.654 8.54596C25.1153 9.00494 25.1153 9.74713 24.654 10.2061ZM9.52428 18.1651V16.212C9.52428 15.8897 9.25641 15.626 8.92901 15.626H4.76214C3.88412 15.626 3.17476 14.9278 3.17476 14.0635V4.68854C3.17476 3.82428 3.88412 3.12604 4.76214 3.12604H8.92901C9.25641 3.12604 9.52428 2.86237 9.52428 2.5401V0.586976C9.52428 0.26471 9.25641 0.0010385 8.92901 0.0010385H4.76214C2.13304 0.0010385 0 2.10065 0 4.68854V14.0635C0 16.6514 2.13304 18.751 4.76214 18.751H8.92901C9.25641 18.751 9.52428 18.4874 9.52428 18.1651Z" fill="#031C54"/>
</svg>
