<svg width="36" height="41" viewBox="0 0 36 41" fill="none" xmlns="http://www.w3.org/2000/svg">
<path d="M28.2857 25.625C26.469 25.625 24.7993 26.2511 23.4812 27.2982L15.2457 22.1689C15.4896 21.0695 15.4896 19.9304 15.2457 18.831L23.4812 13.7017C24.7993 14.7489 26.469 15.375 28.2857 15.375C32.5462 15.375 36 11.9332 36 7.6875C36 3.44184 32.5462 0 28.2857 0C24.0253 0 20.5714 3.44184 20.5714 7.6875C20.5714 8.2607 20.6349 8.819 20.7543 9.35641L12.5188 14.4857C11.2007 13.4386 9.531 12.8125 7.71429 12.8125C3.45383 12.8125 0 16.2543 0 20.5C0 24.7457 3.45383 28.1875 7.71429 28.1875C9.531 28.1875 11.2007 27.5614 12.5188 26.5143L20.7543 31.6436C20.6326 32.1916 20.5713 32.7512 20.5714 33.3125C20.5714 37.5582 24.0253 41 28.2857 41C32.5462 41 36 37.5582 36 33.3125C36 29.0668 32.5462 25.625 28.2857 25.625Z" fill="#CC59D2"/>
</svg>
