<svg width="53" height="36" viewBox="0 0 53 36" fill="none" xmlns="http://www.w3.org/2000/svg">
<path d="M52.6798 16.6312C47.6899 6.71156 37.8113 0 26.5 0C15.1887 0 5.30732 6.71625 0.320159 16.6322C0.109669 17.0564 0 17.5251 0 18.0005C0 18.4758 0.109669 18.9445 0.320159 19.3688C5.31008 29.2884 15.1887 36 26.5 36C37.8113 36 47.6927 29.2837 52.6798 19.3678C52.8903 18.9436 53 18.4749 53 17.9995C53 17.5242 52.8903 17.0555 52.6798 16.6312ZM26.5 31.5C23.8794 31.5 21.3176 30.7082 19.1387 29.2248C16.9597 27.7414 15.2614 25.633 14.2586 23.1662C13.2557 20.6994 12.9933 17.985 13.5046 15.3663C14.0158 12.7475 15.2778 10.3421 17.1308 8.45406C18.9839 6.56605 21.3448 5.2803 23.915 4.7594C26.4853 4.2385 29.1494 4.50584 31.5706 5.52763C33.9917 6.54941 36.0611 8.27974 37.517 10.4998C38.9729 12.7199 39.75 15.33 39.75 18C39.7509 19.7731 39.4087 21.529 38.7432 23.1672C38.0776 24.8055 37.1016 26.2941 35.8711 27.5479C34.6405 28.8016 33.1795 29.796 31.5716 30.4741C29.9636 31.1523 28.2403 31.5009 26.5 31.5ZM26.5 9C25.7116 9.01123 24.9282 9.13074 24.1711 9.35531C24.7952 10.2194 25.0947 11.2827 25.0152 12.3524C24.9358 13.4222 24.4827 14.4275 23.7382 15.1861C22.9937 15.9447 22.007 16.4063 20.957 16.4872C19.9071 16.5681 18.8635 16.263 18.0154 15.6272C17.5325 17.4399 17.6196 19.3613 18.2646 21.1209C18.9096 22.8806 20.08 24.3898 21.6109 25.4362C23.1419 26.4826 24.9564 27.0136 26.799 26.9543C28.6416 26.8949 30.4196 26.2484 31.8827 25.1056C33.3458 23.9628 34.4203 22.3813 34.955 20.5837C35.4897 18.7862 35.4577 16.863 34.8634 15.0849C34.2692 13.3068 33.1426 11.7634 31.6423 10.6719C30.142 9.5803 28.3435 8.99558 26.5 9Z" fill="black"/>
</svg>
