<svg width="41" height="29" viewBox="0 0 41 29" fill="none" xmlns="http://www.w3.org/2000/svg">
<path d="M6.15 12.4286C8.41141 12.4286 10.25 10.5708 10.25 8.28571C10.25 6.00067 8.41141 4.14286 6.15 4.14286C3.88859 4.14286 2.05 6.00067 2.05 8.28571C2.05 10.5708 3.88859 12.4286 6.15 12.4286ZM34.85 12.4286C37.1114 12.4286 38.95 10.5708 38.95 8.28571C38.95 6.00067 37.1114 4.14286 34.85 4.14286C32.5886 4.14286 30.75 6.00067 30.75 8.28571C30.75 10.5708 32.5886 12.4286 34.85 12.4286ZM36.9 14.5H32.8C31.6725 14.5 30.6539 14.9596 29.9108 15.704C32.4925 17.1346 34.3247 19.7174 34.7219 22.7857H38.95C40.0839 22.7857 41 21.86 41 20.7143V18.6429C41 16.3578 39.1614 14.5 36.9 14.5ZM20.5 14.5C24.4655 14.5 27.675 11.2569 27.675 7.25C27.675 3.24308 24.4655 0 20.5 0C16.5345 0 13.325 3.24308 13.325 7.25C13.325 11.2569 16.5345 14.5 20.5 14.5ZM25.42 16.5714H24.8883C23.5558 17.2188 22.0759 17.6071 20.5 17.6071C18.9241 17.6071 17.4506 17.2188 16.1117 16.5714H15.58C11.5056 16.5714 8.2 19.9116 8.2 24.0286V25.8929C8.2 27.6083 9.57734 29 11.275 29H29.725C31.4227 29 32.8 27.6083 32.8 25.8929V24.0286C32.8 19.9116 29.4944 16.5714 25.42 16.5714ZM11.0892 15.704C10.3461 14.9596 9.3275 14.5 8.2 14.5H4.1C1.83859 14.5 0 16.3578 0 18.6429V20.7143C0 21.86 0.916094 22.7857 2.05 22.7857H6.27172C6.67531 19.7174 8.5075 17.1346 11.0892 15.704Z" fill="#CC59D2"/>
</svg>
