<svg width="19" height="25" viewBox="0 0 19 25" fill="none" xmlns="http://www.w3.org/2000/svg">
<path d="M16.4062 3.125H12.5C12.5 1.40137 11.0986 0 9.375 0C7.65137 0 6.25 1.40137 6.25 3.125H2.34375C1.0498 3.125 0 4.1748 0 5.46875V22.6562C0 23.9502 1.0498 25 2.34375 25H16.4062C17.7002 25 18.75 23.9502 18.75 22.6562V5.46875C18.75 4.1748 17.7002 3.125 16.4062 3.125ZM9.375 1.95312C10.0244 1.95312 10.5469 2.47559 10.5469 3.125C10.5469 3.77441 10.0244 4.29688 9.375 4.29688C8.72559 4.29688 8.20312 3.77441 8.20312 3.125C8.20312 2.47559 8.72559 1.95312 9.375 1.95312ZM15.293 13.2715L8.31055 20.1953C8.08105 20.4248 7.70996 20.4199 7.48047 20.1904L3.44727 16.123C3.21777 15.8936 3.22266 15.5225 3.45215 15.293L4.83887 13.916C5.06836 13.6865 5.43945 13.6914 5.66895 13.9209L7.91504 16.1865L13.0908 11.0498C13.3203 10.8203 13.6914 10.8252 13.9209 11.0547L15.2979 12.4414C15.5273 12.6758 15.5225 13.042 15.293 13.2715Z" fill="#031C54"/>
</svg>
