<svg width="18" height="25" viewBox="0 0 18 25" fill="none" xmlns="http://www.w3.org/2000/svg">
<path d="M14.6973 10.5176C15.2686 8.92578 16.9141 4.32129 16.9141 2.84668C16.9141 1.54785 16.1475 0.458984 14.7803 0.458984C12.6025 0.458984 10.6494 6.88965 10.0391 8.42285C9.56544 7.03125 7.34864 0 5.39551 0C3.87696 0 3.16407 1.11816 3.16407 2.52441C3.16407 4.24805 4.83399 8.71582 5.43946 10.4346C5.13184 10.3223 4.79981 10.2246 4.4629 10.2246C3.32032 10.2246 2.1045 11.6455 2.1045 12.793C2.1045 13.2275 2.34376 13.8379 2.49512 14.2432C0.693365 14.7314 5.34692e-06 15.9326 5.34692e-06 17.7441C-0.00487747 21.2695 3.33497 25 8.03223 25C13.794 25 17.3779 20.6738 17.3779 15.0928C17.3779 12.9883 17.041 11.0889 14.6973 10.5176ZM12.9688 5.27344C13.1641 4.67285 13.999 2.13379 14.7803 2.13379C15.2002 2.13379 15.3125 2.56836 15.3125 2.91504C15.3125 3.84766 13.4277 8.99902 13.0127 10.1416L11.3525 9.84863L12.9688 5.27344ZM4.69727 2.3584C4.69727 1.77734 5.40528 0.126953 6.95801 4.6582L8.64747 9.55566C7.88575 9.49219 7.29493 9.40918 6.91895 9.62402C6.38672 8.21777 4.69727 3.7793 4.69727 2.3584ZM4.58497 11.9141C6.01563 11.9141 7.86133 16.5332 7.86133 17.1582C7.86133 17.4072 7.62208 17.7148 7.34376 17.7148C6.32325 17.7148 3.58887 13.96 3.58887 12.9443C3.59376 12.5684 4.20899 11.9141 4.58497 11.9141ZM13.584 21.0107C12.1631 22.5732 10.3467 23.3838 8.22754 23.3838C5.32715 23.3838 3.03711 21.792 1.9336 19.0723C1.09864 16.9531 2.11915 15.7373 2.93946 15.7373C3.4961 15.7373 5.59083 18.6816 5.59083 19.3066C5.59083 19.5459 5.21485 19.7119 5.01954 19.7119C4.2334 19.7119 3.92579 18.9551 2.52442 17.2021C1.07422 18.6523 3.5254 21.4453 5.3711 21.4453C6.64551 21.4453 7.47559 20.2637 7.22657 19.3945C7.40723 19.3945 7.63184 19.4092 7.79786 19.3652C7.85157 20.6885 8.24219 22.2656 9.83399 22.3779C9.83399 22.334 9.93165 22.0312 9.93165 22.0166C9.93165 21.167 9.41407 20.4248 9.41407 19.5605C9.41407 18.1787 10.4736 16.8408 11.5479 16.0596C11.9385 15.7666 12.4121 15.5859 12.8711 15.4199C13.3447 15.2393 13.8477 15.0293 14.209 14.668C14.1553 14.1211 13.9307 13.6377 13.3838 13.6377C12.0313 13.6377 7.49512 13.833 7.49512 11.6992C7.49512 11.3721 7.50001 11.0596 8.34473 11.0596C9.92188 11.0596 13.9258 11.4502 15.0977 12.4805C15.9815 13.2666 16.2842 18.0078 13.584 21.0107ZM8.76954 14.8584C9.24317 15.0098 9.73145 15.0537 10.2197 15.1514C9.8584 15.415 9.53614 15.7373 9.22852 16.084C9.0918 15.6689 8.92579 15.2637 8.76954 14.8584Z" fill="#CC59D2"/>
</svg>
