<svg width="29" height="38" viewBox="0 0 29 38" fill="none" xmlns="http://www.w3.org/2000/svg">
<path d="M16.9167 10.0938V0H1.8125C0.808073 0 0 0.794141 0 1.78125V36.2188C0 37.2059 0.808073 38 1.8125 38H27.1875C28.1919 38 29 37.2059 29 36.2188V11.875H18.7292C17.7323 11.875 16.9167 11.0734 16.9167 10.0938ZM21.8391 26.1257H16.9167V32.0632C16.9167 32.7193 16.3759 33.2507 15.7083 33.2507H13.2917C12.6241 33.2507 12.0833 32.7193 12.0833 32.0632V26.1257H7.16089C6.08245 26.1257 5.54398 24.8425 6.30977 24.0951L13.5915 16.9924C14.0937 16.5018 14.9048 16.5018 15.407 16.9924L22.6887 24.0951C23.4553 24.8425 22.9176 26.1257 21.8391 26.1257ZM28.4714 7.79297L21.0779 0.519531C20.738 0.185547 20.2773 0 19.794 0H19.3333V9.5H29V9.04727C29 8.57969 28.8112 8.12695 28.4714 7.79297Z" fill="black"/>
</svg>
